<?xml version="1.0" standalone="no"?>
<!DOCTYPE svg PUBLIC "-//W3C//DTD SVG 20010904//EN"
 "http://www.w3.org/TR/2001/REC-SVG-20010904/DTD/svg10.dtd">
<svg version="1.0" xmlns="http://www.w3.org/2000/svg"
 width="2669.000000pt" height="752.000000pt" viewBox="0 0 2669.000000 752.000000"
 preserveAspectRatio="xMidYMid meet">

<g transform="translate(0.000000,752.000000) scale(0.100000,-0.100000)"
fill="#000000" stroke="none">
<path d="M3540 6035 c-323 -44 -599 -146 -860 -317 -258 -168 -490 -398 -650
-643 -77 -118 -182 -341 -234 -495 -81 -240 -106 -402 -106 -685 0 -110 3
-210 6 -222 4 -13 16 -24 33 -27 24 -5 845 10 901 16 23 3 27 -5 66 -114 69
-194 151 -324 301 -474 157 -158 346 -264 563 -315 122 -30 348 -32 485 -6
311 60 580 226 731 452 65 96 65 95 -19 95 -546 2 -687 -1 -739 -17 -38 -12
-90 -17 -183 -17 -116 -1 -139 2 -210 27 -151 51 -295 174 -379 321 -64 112
-80 192 -72 354 4 70 8 147 9 172 l2 45 -470 5 -470 5 2 40 c5 103 149 443
248 586 287 413 697 651 1205 700 299 28 571 -27 875 -176 297 -146 547 -399
704 -712 23 -45 47 -85 53 -89 6 -4 228 -6 493 -5 389 2 483 0 492 -11 18 -22
44 -215 64 -473 24 -314 -40 -729 -164 -1055 -124 -325 -305 -598 -582 -875
-206 -207 -367 -327 -599 -445 -255 -130 -497 -209 -802 -262 -113 -20 -164
-23 -414 -23 -371 0 -521 23 -835 127 -142 47 -422 182 -555 269 -196 127
-399 310 -565 509 -43 52 -86 100 -95 107 -11 9 -95 12 -318 13 l-303 0 17
-33 c95 -183 271 -415 459 -603 394 -394 823 -656 1300 -793 678 -195 1251
-186 1905 29 592 195 1162 616 1518 1123 237 337 391 676 486 1077 96 400 110
790 45 1200 -27 172 -112 496 -159 604 l-19 46 -526 0 -526 0 -25 28 c-15 15
-47 59 -72 97 -123 187 -481 489 -722 610 -268 135 -464 199 -699 230 -132 18
-461 18 -591 0z"/>
<path d="M19641 4988 c-126 -36 -191 -162 -142 -274 26 -58 44 -79 95 -111 89
-57 215 -35 295 52 66 72 74 146 25 232 -54 94 -161 133 -273 101z"/>
<path d="M23096 4618 c-3 -209 -3 -644 0 -965 l7 -583 198 0 199 0 6 26 c4 14
5 156 2 315 -2 159 -1 289 2 289 12 0 36 -33 145 -205 188 -294 251 -389 269
-407 16 -16 41 -18 242 -18 187 0 224 2 224 14 0 18 -47 87 -216 319 -225 311
-244 340 -244 365 0 15 117 174 260 356 126 161 180 235 180 247 0 4 -106 8
-235 8 l-234 2 -17 -28 c-10 -15 -45 -71 -79 -123 -33 -52 -110 -173 -169
-267 -59 -95 -112 -173 -117 -173 -5 0 -9 163 -9 388 0 213 -3 485 -7 605 l-6
217 -197 0 -197 0 -7 -382z"/>
<path d="M24665 4981 c-133 -61 -164 -218 -66 -332 77 -91 192 -103 303 -33
141 89 126 291 -27 363 -58 27 -154 28 -210 2z"/>
<path d="M7652 3988 l3 -913 203 -3 203 -2 -7 370 c-4 203 -5 370 -3 371 50 6
758 8 762 2 3 -5 9 -174 13 -376 l7 -367 199 0 198 0 0 899 c0 495 -3 906 -6
915 -5 14 -32 16 -200 16 -107 0 -195 -1 -196 -2 -1 -2 -5 -165 -8 -363 l-5
-360 -369 -3 c-209 -1 -374 2 -379 7 -5 5 -11 163 -14 352 -2 189 -6 350 -8
357 -3 9 -52 12 -200 12 l-195 0 2 -912z"/>
<path d="M17040 3998 c0 -497 4 -909 8 -916 7 -9 51 -12 188 -10 l179 3 0 365
c0 462 -10 860 -25 973 -20 146 10 129 55 -31 15 -53 51 -164 80 -247 29 -82
92 -260 140 -395 47 -135 97 -274 110 -310 13 -36 40 -111 60 -166 72 -196 86
-208 262 -202 124 4 138 14 184 132 69 178 297 848 384 1131 26 83 54 157 62
165 14 13 15 5 9 -85 -15 -235 -18 -526 -11 -917 l7 -418 198 0 c180 0 198 2
201 18 2 9 3 418 1 908 l-2 891 -286 8 c-191 5 -289 4 -296 -3 -9 -9 -82 -216
-354 -1012 -52 -151 -97 -281 -99 -289 -11 -29 -27 8 -56 129 -28 117 -95 321
-284 865 -48 138 -89 259 -92 270 -13 45 -11 45 -324 45 l-299 0 0 -902z"/>
<path d="M13990 4720 c-80 -21 -163 -43 -186 -49 l-41 -11 -6 -136 c-3 -75 -8
-138 -10 -140 -2 -2 -49 -7 -105 -10 l-103 -7 3 -146 3 -146 100 -5 100 -5 7
-315 c7 -340 11 -403 34 -479 29 -100 153 -196 284 -221 78 -15 219 -12 277 5
92 27 123 96 108 238 l-7 64 -103 5 c-178 10 -175 4 -188 392 -9 261 -8 291 7
301 8 7 66 15 128 19 174 10 158 -6 158 156 l0 138 -30 7 c-17 4 -73 4 -124 0
-147 -11 -136 -27 -136 196 0 145 -3 189 -12 188 -7 0 -78 -18 -158 -39z"/>
<path d="M9940 4391 c-136 -25 -267 -67 -278 -89 -14 -27 -24 -292 -11 -292 6
0 39 13 74 29 135 63 330 108 407 95 69 -11 79 -15 114 -46 43 -38 64 -82 64
-133 0 -44 -13 -50 -130 -59 -288 -23 -456 -77 -559 -179 -72 -71 -101 -153
-101 -285 0 -169 83 -300 228 -363 23 -10 77 -23 119 -28 148 -18 252 17 353
121 30 32 60 58 67 58 18 0 30 -29 38 -93 l7 -57 182 2 181 3 3 420 c2 279 -1
448 -9 504 -27 196 -150 331 -352 388 -87 24 -276 26 -397 4z m371 -732 c45
-45 0 -200 -78 -269 -57 -50 -98 -63 -184 -58 -62 3 -72 7 -103 37 -25 24 -38
49 -46 84 -9 45 -8 55 12 96 29 57 76 85 190 111 117 26 182 26 209 -1z"/>
<path d="M15137 4391 c-218 -48 -382 -172 -466 -351 -51 -109 -65 -180 -65
-325 0 -151 14 -217 74 -341 48 -100 133 -182 248 -242 138 -72 205 -87 382
-87 135 0 165 3 230 23 219 69 371 213 438 416 45 137 49 368 7 485 -97 276
-316 425 -640 437 -94 3 -139 0 -208 -15z m320 -329 c88 -46 139 -145 150
-291 11 -163 -26 -283 -111 -358 -54 -48 -101 -63 -194 -63 -124 0 -211 65
-263 197 -20 49 -23 77 -24 183 0 114 2 130 26 180 35 75 84 128 144 157 44
21 61 24 140 20 67 -2 100 -9 132 -25z"/>
<path d="M11675 4393 c-22 -3 -54 -30 -121 -99 -50 -52 -96 -94 -102 -94 -16
0 -19 20 -16 91 1 36 -1 71 -5 77 -5 9 -60 12 -207 10 l-199 -3 -3 -220 c-2
-121 0 -415 3 -653 l7 -432 197 2 196 3 5 380 c6 431 4 420 87 503 78 77 107
87 252 86 l124 -1 -7 81 c-3 45 -6 125 -6 179 l0 97 -87 -1 c-49 -1 -101 -4
-118 -6z"/>
<path d="M12050 4008 c1 -588 15 -696 105 -810 51 -66 104 -102 190 -134 177
-64 320 -29 478 117 41 38 80 69 85 69 17 0 20 -21 14 -101 -4 -61 -2 -77 10
-82 8 -3 96 -3 195 0 l181 6 4 41 c8 81 10 826 3 1044 l-8 222 -196 -2 -196
-3 -2 -429 c-3 -492 0 -473 -94 -539 -75 -52 -150 -67 -213 -43 -67 26 -111
71 -131 136 -15 47 -19 113 -24 460 l-6 405 -60 6 c-33 3 -122 7 -197 8 l-138
2 0 -373z"/>
<path d="M19512 3728 l3 -653 198 -3 197 -2 2 177 c4 488 -5 1118 -16 1125 -6
4 -95 8 -199 8 l-187 0 2 -652z"/>
<path d="M20194 4367 c-2 -7 -3 -76 -2 -152 l3 -140 281 4 c170 2 284 0 287
-6 6 -10 -187 -263 -417 -548 -71 -88 -147 -186 -167 -218 -38 -59 -63 -143
-57 -194 3 -26 7 -29 58 -35 30 -3 292 -6 583 -7 l527 -1 0 150 0 150 -300 0
c-248 0 -300 2 -300 14 0 7 37 60 83 117 119 149 380 492 436 574 80 119 102
188 85 274 l-6 31 -545 0 c-436 0 -545 -3 -549 -13z"/>
<path d="M21490 4023 c1 -374 10 -585 31 -669 19 -77 54 -139 113 -198 71 -70
145 -105 256 -119 148 -18 232 15 367 146 92 89 101 87 105 -30 l3 -88 190 3
c135 2 192 6 197 15 4 7 8 299 8 650 l0 637 -172 1 c-95 0 -183 2 -196 3 -13
2 -25 0 -27 -4 -2 -4 -7 -189 -10 -411 -3 -222 -8 -420 -11 -439 -13 -77 -112
-157 -210 -167 -99 -10 -187 45 -214 134 -14 44 -28 388 -29 679 -1 201 -1
202 -23 207 -13 3 -103 6 -200 7 l-178 1 0 -358z"/>
<path d="M24560 4027 c0 -195 3 -489 7 -655 l6 -302 199 0 198 0 -1 608 c0
334 -4 627 -7 652 l-7 45 -197 3 -198 2 0 -353z"/>
</g>
</svg>
