<svg xmlns="http://www.w3.org/2000/svg" xmlns:xlink="http://www.w3.org/1999/xlink" viewBox="0 0 65.131 62.131" fill="#fff" fill-rule="evenodd" stroke="#000" stroke-linecap="round" stroke-linejoin="round"><use xlink:href="#A" x=".5" y=".631"/><symbol id="A" overflow="visible"><path d="M35.846.183l-.057-.126C35.762.029 35.733 0 35.663 0l-.126.029c-.057.057-.086.086-.086.143l-2.419 43.795.371-.057L35.76 1.318 38.55 5.9h-.029c2.106 6.204 2.989 12.806 2.648 19.807l.17.256 2.774 4.893.17.17c4.241 3.728 8.991 6.232 14.257 7.513l1.28 2.078.17.057.029-.057L35.801 1.005l.057-.826m-.864 15.456c2.989 6.119 4.069 15.367 3.272 27.746l11.639-1.422zm26.532 26.893c1.195-.142 1.963-.398 2.305-.757L2.888 49.199c.029 2.532 1.166 4.525 3.386 5.947.551.395 1.155.712 1.793.939.542-.625 1.139-1.082 1.85-1.508h.028c6.374-3.871 15.851-4.468 28.373-1.821l.143.028c1.353.278 2.692.619 4.013 1.024a1.11 1.11 0 0 0 .939-.285c.454-.34 1.025-.598 1.793-.757v-.029c2.02-3.586 4.754-6.232 8.168-7.97 2.362-1.166 5.095-1.936 8.139-2.219M32.258 43.65L35.033.907c-4.014 15.531-10.577 30.288-19.421 43.671l16.648-.939M16.579 9.204l-.126-.057-.126.029-.057.143-2.305 36.996.34-.029 2.305-36.967-.057-.126m-3.218 36.324l2.446-36.084L2.891 46.626l10.444-1.11" stroke="none" fill="#ccc" fill-rule="nonzero"/><g stroke="#ccc" fill="none"><path d="M13.859 57.545c-3.216 1.538-5.548 1.793-7.029.854-1.48-1.009-3.758-.757-6.83.681m21.4-1.308a8.34 8.34 0 0 0-1.936-.398c-1.395-.126-3.073.429-5.038 1.594-1.963 1.195-4.325 1.639-7.144 1.395m31.652-5.492c-13.546-2.774-23.307-2.135-29.283 1.992m37.822-.656c-.62-.236-1.273-.371-1.936-.398-1.395-.126-3.073.429-5.036 1.594s-4.325 1.622-7.144 1.395" stroke-width=".335"/><path d="M29.3 9.546c-1.395-.854-2.846-.625-4.354.711-1.309-1.337-2.673-1.564-4.098-.711m5.294-4.782c-1.422-.854-2.817-.512-4.241 1.024-1.395-1.538-2.817-1.892-4.241-1.024" stroke-width=".811"/></g></symbol></svg>